<svg width="1029" height="812" viewBox="0 0 1029 812" fill="none" xmlns="http://www.w3.org/2000/svg">
<path d="M116.062 28.8125C146.271 28.8125 171.271 29.3333 191.062 30.375C210.854 30.375 226.479 30.375 237.938 30.375H269.188H305.125C319.708 30.375 338.979 30.375 362.938 30.375C387.938 29.3333 420.229 27.7708 459.812 25.6875C441.062 29.8542 426.479 34.5417 416.062 39.75C405.646 43.9167 397.833 48.6042 392.625 53.8125C386.375 59.0208 382.729 64.75 381.688 71C382.729 79.3333 386.375 92.3542 392.625 110.062C397.833 125.688 406.688 147.042 419.188 174.125C432.729 201.208 452.521 237.667 478.562 283.5C522.312 233.5 555.646 193.917 578.562 164.75C601.479 135.583 618.667 113.188 630.125 97.5625C641.583 79.8542 648.354 67.875 650.438 61.625C649.396 56.4167 647.833 51.2083 645.75 46C642.625 37.6667 634.812 24.6458 622.312 6.9375C650.438 9.02083 674.917 10.5833 695.75 11.625C716.583 11.625 734.292 12.1458 748.875 13.1875C765.542 14.2292 779.083 14.75 789.5 14.75C800.958 14.75 817.625 14.2292 839.5 13.1875C857.208 12.1458 881.167 11.1042 911.375 10.0625C942.625 7.97917 981.688 4.85417 1028.56 0.6875C990.021 19.4375 957.208 37.6667 930.125 55.375C903.042 72.0417 880.646 87.1458 862.938 100.688C842.104 116.312 824.917 130.896 811.375 144.438C797.833 160.062 781.167 179.333 761.375 202.25C743.667 223.083 721.792 249.125 695.75 280.375C670.75 310.583 640.021 348.604 603.562 394.438C630.646 441.312 656.167 481.417 680.125 514.75C705.125 548.083 726.479 575.688 744.188 597.562C765.021 623.604 784.292 644.438 802 660.062C819.708 675.688 838.979 691.312 859.812 706.938C877.521 720.479 897.833 735.062 920.75 750.688C944.708 765.271 970.229 778.292 997.312 789.75C970.229 791.833 943.667 793.396 917.625 794.438C892.625 794.438 870.229 795.479 850.438 797.562C827.521 799.646 805.646 801.208 784.812 802.25C763.979 804.333 742.625 805.896 720.75 806.938C702 807.979 681.167 809.021 658.25 810.062C635.333 811.104 611.896 811.625 587.938 811.625C597.312 802.25 604.604 793.396 609.812 785.062C615.021 776.729 619.188 769.438 622.312 763.188C626.479 755.896 629.083 749.125 630.125 742.875C629.083 734.542 623.875 721 614.5 702.25C606.167 685.583 593.146 662.667 575.438 633.5C557.729 603.292 531.688 562.667 497.312 511.625C473.354 536.625 454.083 558.5 439.5 577.25C425.958 596 415.542 611.625 408.25 624.125C399.917 638.708 394.188 650.688 391.062 660.062C388.979 669.438 388.979 679.854 391.062 691.312C393.146 700.688 396.271 712.146 400.438 725.688C404.604 738.188 411.896 751.208 422.312 764.75C370.229 767.875 326.479 769.438 291.062 769.438H237.938C221.271 769.438 201.479 768.917 178.562 767.875C158.771 766.833 134.292 766.312 105.125 766.312C74.9167 765.271 40.0208 763.708 0.4375 761.625C11.8958 757.458 23.875 752.25 36.375 746C48.875 739.75 59.8125 734.021 69.1875 728.812C80.6458 722.562 91.5833 715.792 102 708.5C113.458 699.125 131.688 681.417 156.688 655.375C177.521 633.5 206.167 602.771 242.625 563.188C279.083 522.562 326.479 468.396 384.812 400.688C350.438 338.188 322.312 288.708 300.438 252.25C279.604 214.75 263.458 185.583 252 164.75C238.458 140.792 228.562 124.646 222.312 116.312C216.062 107.979 207.729 98.6042 197.312 88.1875C180.646 71.5208 153.562 51.7292 116.062 28.8125Z" fill="black"/>
</svg>
